<svg height="512" viewBox="0 0 64 64" width="512" xmlns="http://www.w3.org/2000/svg"><g id="Flat"><g id="Color_copy" data-name="Color copy"><g><g><path d="m3 7h16v8h-16z" fill="#f89c8d"/><path d="m19 7h38v8h-38z" fill="#f9e109"/><path d="m3 15h54v46h-54z" fill="#aae1f9"/><path d="m7 7h-4v8h16v-4h-8a4 4 0 0 1 -4-4z" fill="#f8664f"/><path d="m19 11h38v4h-38z" fill="#fcbc04"/><path d="m12 36v-21h-9v46h54v-9h-29a16 16 0 0 1 -16-16z" fill="#57b7eb"/><circle cx="7" cy="11" fill="#fcbc04" r="1"/><g fill="#57b7eb"><circle cx="11" cy="11" r="1"/><circle cx="15" cy="11" r="1"/><path d="m31 12h-8a1 1 0 0 1 0-2h8a1 1 0 0 1 0 2z"/><path d="m52 12h-17a1 1 0 0 1 0-2h17a1 1 0 0 1 0 2z"/></g><path d="m32 11a1 1 0 0 1 -1 1h-8a1 1 0 0 1 -1-1z" fill="#4891d3"/><path d="m53 11a1 1 0 0 1 -1 1h-17a1 1 0 0 1 -1-1z" fill="#4891d3"/><path d="m10.027 10.867a.979.979 0 0 0 -.027.133 1 1 0 0 0 2 0h-1a3.952 3.952 0 0 1 -.973-.133z" fill="#4891d3"/><path d="m16 11a1 1 0 0 1 -2 0z" fill="#4891d3"/></g><g><path d="m39 45h12v12h-12z" fill="#f89c8d"/><path d="m46 47v-2h-7v12h12v-4.09a6 6 0 0 1 -5-5.91z" fill="#f8664f"/><g fill="#fcbc04"><path d="m45 47a1 1 0 0 1 -1-1v-1.879a3.124 3.124 0 0 1 3.121-3.121 1.133 1.133 0 0 0 .793-.328l1.379-1.379a1 1 0 0 1 1.414 1.414l-1.379 1.379a3.142 3.142 0 0 1 -2.207.914 1.122 1.122 0 0 0 -1.121 1.121v1.879a1 1 0 0 1 -1 1z"/><path d="m45 48a1 1 0 0 1 -1-1v-1.879a1.122 1.122 0 0 0 -1.121-1.121 3.142 3.142 0 0 1 -2.207-.914l-1.221-1.221a1 1 0 0 1 1.414-1.414l1.221 1.221a1.133 1.133 0 0 0 .793.328 3.124 3.124 0 0 1 3.121 3.121v1.879a1 1 0 0 1 -1 1z"/><path d="m44 45h2v12h-2z"/></g><path d="m8 43h16v14h-16z" fill="#d0d8da"/><path d="m17.875 43a14.077 14.077 0 0 1 -9.875 11.408v2.592h16v-14z" fill="#93999a"/><path d="m8 47h16v4h-16z" fill="#93999a"/><path d="m13.777 51h10.223v-4h-7.353a14.071 14.071 0 0 1 -2.87 4z" fill="#656b76"/><path d="m41 57h-22l1-20h20z" fill="#f9e109"/><path d="m8 20h8v4h-8z" fill="#f9e109"/><path d="m24.842 37h-4.842l-1 20h22l-.2-4a15.985 15.985 0 0 1 -15.958-16z" fill="#fcbc04"/><path d="m8 20h4v4h-4z" fill="#fcbc04"/><path d="m24 42a1 1 0 0 1 -1-1v-1.515a21.563 21.563 0 0 1 2.477-10 1 1 0 0 1 1.77.932 19.555 19.555 0 0 0 -2.247 9.068v1.515a1 1 0 0 1 -1 1z" fill="#f8664f"/><path d="m30 46a1 1 0 1 1 1-1 1 1 0 0 0 2 0 3 3 0 0 0 -2-2.816v-1.184a1 1 0 0 0 -2 0v1.184a2.993 2.993 0 0 0 1 5.816 1 1 0 1 1 -1 1 1 1 0 0 0 -2 0 3 3 0 0 0 2 2.816v1.184a1 1 0 0 0 2 0v-1.184a2.993 2.993 0 0 0 -1-5.816z" fill="#fcbc04"/><path d="m15 29h-6a1 1 0 0 1 0-2h6a1 1 0 0 1 0 2z" fill="#f8664f"/><path d="m17 33h-8a1 1 0 0 1 0-2h8a1 1 0 0 1 0 2z" fill="#f8664f"/><path d="m40 23-2.828 3.485-4.2-4.2a2.061 2.061 0 0 1 0-2.915 2.061 2.061 0 0 1 2.824-.087z" fill="#fcbc04"/><path d="m34 20.311-.979-.978c-.015.013-.032.023-.047.038a2.061 2.061 0 0 0 0 2.915l4.2 4.2 2.826-3.486-1.929-1.7a4.028 4.028 0 0 1 -4.071-.989z" fill="#e59730"/><path d="m39 22-8.535 3.414a3 3 0 0 1 -2.778-.289l-3.205-2.137a2.173 2.173 0 0 0 -2.742.272 2.172 2.172 0 0 0 .2 3.251l4.889 3.8a6 6 0 0 0 4.861 1.147l7.31-1.458 8 2v-10z" fill="#f9e109"/><path d="m39.66 22a9.087 9.087 0 0 1 -6.967 6.461 6 6 0 0 1 -4.861-1.147l-4.889-3.8a2.152 2.152 0 0 1 -.577-.687 2.161 2.161 0 0 0 -.626.436 2.172 2.172 0 0 0 .2 3.251l4.889 3.8a6 6 0 0 0 4.861 1.147l7.31-1.461 8 2v-10z" fill="#fcbc04"/><path d="m51 32a16.937 16.937 0 0 0 -7.578 1.789l-.422.211v-14l.422.211a16.937 16.937 0 0 0 7.578 1.789z" fill="#f89c8d"/><path d="m51 22h10v10h-10z" fill="#f8664f"/><path d="m45.025 20.906a17.046 17.046 0 0 1 -1.6-.7l-.425-.206v14l.422-.211a16.94 16.94 0 0 1 7.578-1.789v-4.209a7.585 7.585 0 0 1 -5.975-6.885z" fill="#f8664f"/><path d="m51 27.791v4.209h10v-4h-8.08a8.108 8.108 0 0 1 -1.92-.209z" fill="#cc5144"/><path d="m30 26.448a19.345 19.345 0 0 1 5 13.037v1.515a1 1 0 0 0 2 0v-1.515a21.341 21.341 0 0 0 -6.293-15.192 1 1 0 0 0 -1.414 0c-.137.137-.264.28-.39.425l-.2.221a.978.978 0 0 0 -.239.552 3.012 3.012 0 0 0 .974.136z" fill="#f8664f"/><path d="m9 31h3a0 0 0 0 1 0 0v2a0 0 0 0 1 0 0h-3a1 1 0 0 1 -1-1 1 1 0 0 1 1-1z" fill="#cc5144"/><path d="m9 27h3a0 0 0 0 1 0 0v2a0 0 0 0 1 0 0h-3a1 1 0 0 1 -1-1 1 1 0 0 1 1-1z" fill="#cc5144"/><g fill="#e59730"><path d="m29.1 47.845a16.105 16.105 0 0 1 -2.1-2.84 2.994 2.994 0 0 0 2.1 2.84z"/><path d="m29 51.816v1.184a1 1 0 0 0 2 0v-1.184a3.029 3.029 0 0 0 1.5-1.175 16.09 16.09 0 0 1 -1.646-1.149.986.986 0 0 1 -.854.508 1 1 0 0 1 -1-1 1 1 0 0 0 -2 0 3 3 0 0 0 2 2.816z"/></g></g></g></g></g></svg>