<svg height="512" viewBox="0 0 64 64" width="512" xmlns="http://www.w3.org/2000/svg"><g id="Flat"><g id="Color_copy" data-name="Color copy"><g><rect fill="#93999a" height="58" rx="4" width="38" x="11" y="3"/><path d="m44 49a22 22 0 0 1 -22-22v-24h-7a4 4 0 0 0 -4 4v50a4 4 0 0 0 4 4h30a4 4 0 0 0 4-4v-8z" fill="#656b76"/><path d="m15 11h30v41h-30z" fill="#aae1f9"/><path d="m26 3a4 4 0 0 0 4 4h13a4 4 0 0 1 4 4v24a2 2 0 0 0 2 2v-30a4 4 0 0 0 -4-4z" fill="#d0d8da"/><path d="m45 49h-1a22 22 0 0 1 -22-22v-16h-7v41h30z" fill="#57b7eb"/><g fill="#4891d3"><circle cx="15" cy="7" r="1"/><circle cx="19" cy="7" r="1"/><path d="m34 57h-8a1 1 0 0 1 0-2h8a1 1 0 0 1 0 2z"/></g><path d="m21 39a1 1 0 0 1 -.707-.293l-2.648-2.648a2.911 2.911 0 1 1 4.48-3.674 2.294 2.294 0 0 0 1.354.954l2.764.691a1 1 0 1 1 -.486 1.94l-2.763-.691a4.284 4.284 0 0 1 -2.533-1.784.911.911 0 0 0 -1.4-.14.913.913 0 0 0 0 1.29l2.648 2.648a1 1 0 0 1 -.709 1.707z" fill="#fcbc04"/><path d="m41 18h-22a1 1 0 0 1 0-2h22a1 1 0 0 1 0 2z" fill="#f9e109"/><g><path d="m25 46h-6v-7l3-3 3 3z" fill="#f89c8d"/><path d="m21 38v-1l-2 2v7h6v-2.349a6 6 0 0 1 -4-5.651z" fill="#f8664f"/><path d="m19 40h2a1 1 0 0 1 0 2h-2z" fill="#f9e109"/><path d="m21.956 41.217a5.948 5.948 0 0 1 -.571-1.139.992.992 0 0 0 -.385-.078h-2v2h2a.986.986 0 0 0 .956-.783z" fill="#fcbc04"/></g><path d="m19 18h3v-2h-3a1 1 0 0 0 0 2z" fill="#fcbc04"/><path d="m60 14h-6a1 1 0 0 0 -.978.791l-1.116 5.209h-29.906a1 1 0 0 0 -.949 1.316l6 18a1 1 0 0 0 .949.684h19.62l-.429 2h-19.191a1 1 0 0 0 0 2h1.184a2.966 2.966 0 0 0 -.184 1 3 3 0 0 0 6 0 2.966 2.966 0 0 0 -.184-1h4.368a2.966 2.966 0 0 0 -.184 1 3 3 0 0 0 6 0 2.966 2.966 0 0 0 -.184-1h3.184a1 1 0 0 0 .978-.791l5.831-27.209h5.191a1 1 0 0 0 0-2zm-27 31a1 1 0 1 1 -1-1 1 1 0 0 1 1 1zm10 0a1 1 0 1 1 -1-1 1 1 0 0 1 1 1zm-17.613-17h3.144l.889 4h-2.7zm5.193 0h3.191l.445 4h-2.747zm2.969-2h-3.414l-.888-4h3.853zm1.568-4h3.883v4h-3.438zm-.679 12 .445 4h-2.083l-.888-4zm2.013 0h2.549v4h-2.1zm-.222-2-.445-4h3.216v4zm4.771-4h9.192l-.858 4h-8.334zm0-2v-4h10.477l-.857 4zm-13.8-4 .889 4h-3.368l-1.334-4zm.189 12h2.478l.889 4h-2.035zm13.611 4v-4h7.906l-.857 4z" fill="#f9e109"/></g></g></g></svg>