<svg height="512" viewBox="0 0 64 64" width="512" xmlns="http://www.w3.org/2000/svg"><g id="Flat"><g id="Color_copy" data-name="Color copy"><g><rect fill="#93999a" height="58" rx="4" width="38" x="11" y="3"/><path d="m44 49a22 22 0 0 1 -22-22v-24h-7a4 4 0 0 0 -4 4v50a4 4 0 0 0 4 4h30a4 4 0 0 0 4-4v-8z" fill="#656b76"/><path d="m15 11h30v41h-30z" fill="#aae1f9"/><path d="m26 3a4 4 0 0 0 4 4h13a4 4 0 0 1 4 4v24a2 2 0 0 0 2 2v-30a4 4 0 0 0 -4-4z" fill="#d0d8da"/><path d="m45 49h-1a22 22 0 0 1 -22-22v-16h-7v41h30z" fill="#57b7eb"/><g><path d="m49.7 23.717a1 1 0 0 1 -.826-1.563 6.5 6.5 0 1 0 -11.122-6.686 1 1 0 0 1 -1.768-.936 8.5 8.5 0 1 1 14.544 8.748 1 1 0 0 1 -.828.437z" fill="#aae1f9"/><path d="m41 27h8v10h-8z" fill="#fcbc04"/><path d="m41 37h8a4 4 0 0 1 4 4v4a0 0 0 0 1 0 0h-18a0 0 0 0 1 0 0v-2a6 6 0 0 1 6-6z" fill="#f89c8d"/><path d="m49 29v-2h-8v10h8v-2a5.97 5.97 0 0 1 -3-.809 5.992 5.992 0 0 0 3-5.191z" fill="#e59730"/><path d="m37 21h12a0 0 0 0 1 0 0v6a6 6 0 0 1 -6 6 6 6 0 0 1 -6-6v-6a0 0 0 0 1 0 0z" fill="#f9e109"/><path d="m33 15h13a3 3 0 0 1 3 3v3a0 0 0 0 1 0 0h-12a4 4 0 0 1 -4-4v-2a0 0 0 0 1 0 0z" fill="#f89c8d"/><path d="m31 32v-3h-12v12h12v-5l4-4z" fill="#57b7eb"/><path d="m46 31a6 6 0 0 1 -6-6 2 2 0 0 1 2-2h7v-2h-12v6a6 6 0 0 0 10.673 3.759 6 6 0 0 1 -1.673.241z" fill="#fcbc04"/><path d="m41 19a4 4 0 0 1 -4-4h-4v2a4 4 0 0 0 4 4h12v-2z" fill="#f8664f"/><path d="m46 42a5 5 0 0 1 -5-5 6 6 0 0 0 -6 6v2h18v-3z" fill="#f8664f"/><path d="m22.1 29h-3.1v12h8.029a21.9 21.9 0 0 1 -4.929-12z" fill="#4891d3"/><circle cx="15" cy="7" fill="#4891d3" r="1"/><circle cx="19" cy="7" fill="#4891d3" r="1"/><path d="m34 57h-8a1 1 0 0 1 0-2h8a1 1 0 0 1 0 2z" fill="#4891d3"/><path d="m44.9 29.578a4.422 4.422 0 0 1 -2.457-.746 1 1 0 0 1 1.11-1.664 2.43 2.43 0 0 0 3.106-.341 1 1 0 1 1 1.441 1.385 4.43 4.43 0 0 1 -3.2 1.366z" fill="#57b7eb"/><path d="m36 45h-12a1 1 0 0 1 0-2h12a1 1 0 0 1 0 2z" fill="#f8664f"/><path d="m27 34h-4a1 1 0 0 1 0-2h4a1 1 0 0 1 0 2z" fill="#f9e109"/><path d="m27 38h-4a1 1 0 0 1 0-2h4a1 1 0 0 1 0 2z" fill="#f9e109"/><path d="m27 26h-7a1 1 0 0 1 0-2h7a1 1 0 0 1 0 2z" fill="#f9e109"/><path d="m24 22h-4a1 1 0 0 1 0-2h4a1 1 0 0 1 0 2z" fill="#f9e109"/><circle cx="49" cy="25" fill="#57b7eb" r="3"/><path d="m51 26a2.96 2.96 0 0 1 -2.86-3.86 2.992 2.992 0 1 0 3.72 3.72 2.983 2.983 0 0 1 -.86.14z" fill="#4891d3"/><path d="m23 44a1 1 0 0 0 1 1h7.358a22.182 22.182 0 0 1 -2.449-2h-4.909a1 1 0 0 0 -1 1z" fill="#cc5144"/><g fill="#fcbc04"><path d="m22 33a1 1 0 0 0 1 1h.144q-.315-.939-.546-1.913a1 1 0 0 0 -.598.913z"/><path d="m22 37a1 1 0 0 0 1 1h1.951a21.762 21.762 0 0 1 -1.025-2h-.926a1 1 0 0 0 -1 1z"/><path d="m19 25a1 1 0 0 0 1 1h2v-2h-2a1 1 0 0 0 -1 1z"/><path d="m19 21a1 1 0 0 0 1 1h2v-2h-2a1 1 0 0 0 -1 1z"/></g></g></g></g></g></svg>